<?xml version="1.0" encoding="UTF-8" standalone="no"?>
<svg
   xmlns:dc="http://purl.org/dc/elements/1.1/"
   xmlns:cc="http://creativecommons.org/ns#"
   xmlns:rdf="http://www.w3.org/1999/02/22-rdf-syntax-ns#"
   xmlns:svg="http://www.w3.org/2000/svg"
   xmlns="http://www.w3.org/2000/svg"
   xmlns:sodipodi="http://sodipodi.sourceforge.net/DTD/sodipodi-0.dtd"
   xmlns:inkscape="http://www.inkscape.org/namespaces/inkscape"
   width="186.37053mm"
   height="87.730209mm"
   viewBox="0 0 186.37053 87.730209"
   version="1.1"
   id="svg8"
   inkscape:version="1.0.1 (0767f8302a, 2020-10-17)"
   sodipodi:docname="GolfCart.svg">
  <defs
     id="defs2" />
  <sodipodi:namedview
     id="base"
     pagecolor="#ffffff"
     bordercolor="#666666"
     borderopacity="1.0"
     inkscape:pageopacity="0.0"
     inkscape:pageshadow="2"
     inkscape:zoom="1.4"
     inkscape:cx="300.14889"
     inkscape:cy="154.18908"
     inkscape:document-units="mm"
     inkscape:current-layer="layer1"
     inkscape:document-rotation="0"
     showgrid="false"
     inkscape:window-width="1848"
     inkscape:window-height="1043"
     inkscape:window-x="72"
     inkscape:window-y="0"
     inkscape:window-maximized="1"
     fit-margin-top="0"
     fit-margin-left="0"
     fit-margin-right="0"
     fit-margin-bottom="0" />
  <metadata
     id="metadata5">
    <rdf:RDF>
      <cc:Work
         rdf:about="">
        <dc:format>image/svg+xml</dc:format>
        <dc:type
           rdf:resource="http://purl.org/dc/dcmitype/StillImage" />
        <dc:title></dc:title>
      </cc:Work>
    </rdf:RDF>
  </metadata>
  <g
     inkscape:label="Layer 1"
     inkscape:groupmode="layer"
     id="layer1"
     transform="translate(-33.967804,-226.04526)">
    <rect
       style="fill:#525764;fill-opacity:1;stroke:none;stroke-width:2.34434;stroke-miterlimit:4;stroke-dasharray:none;stroke-opacity:1"
       id="rect2456-7"
       width="0.9946354"
       height="7.0268931"
       x="187.36813"
       y="230.23462"
       ry="0.43012279" />
    <path
       id="path912"
       style="fill:none;stroke:#525764;stroke-width:3.865;stroke-linecap:butt;stroke-linejoin:miter;stroke-miterlimit:4;stroke-dasharray:none;stroke-opacity:1"
       d="m 187.84364,262.71597 h 8.14777 m -43.80466,0 h 35.65689 v -26.79399 m -71.98018,26.79399 h 36.32329 v -27.79449 m -75.156647,27.79449 h 38.833357 v -27.28534 m 80.71866,19.15596 c 1.95485,-13.04665 -3.07419,-19.56908 -10.35538,-19.56908 H 89.197838 c -18.789056,0 -29.728554,19.5765 -31.988582,27.69846 h 19.820848 v -23.72249" />
    <path
       style="fill:#fcfdfd;fill-opacity:1;stroke:#525764;stroke-width:1;stroke-linecap:butt;stroke-linejoin:miter;stroke-miterlimit:4;stroke-dasharray:none;stroke-opacity:1"
       d="m 198.02525,254.83771 c 0,0 0.48537,15.30683 11.63688,20.22722 9.41822,4.15561 10.17,16.50153 10.17617,20.23898 0.001,0.68782 -0.023,4.76831 -0.023,4.76831 l -32.23488,4.9531 H 70.33217 l -35.752251,-6.74408 c -0.34954,-1.29392 -0.569179,-14.04504 10.543669,-22.50462 11.118024,-8.46353 10.047155,-11.48996 10.357987,-11.5036 l 136.806635,0.31801 2.7985,-10.24049 z"
       id="path887"
       sodipodi:nodetypes="cssccccscccc" />
    <path
       style="fill:#6292cc;fill-opacity:1;stroke:#525764;stroke-width:0.264583px;stroke-linecap:butt;stroke-linejoin:miter;stroke-opacity:1"
       d="m 70.330241,264.61005 10.858547,40.52467 H 102.33004 L 91.509301,264.75116 Z"
       id="path891"
       sodipodi:nodetypes="ccccc" />
    <path
       style="fill:#894268;fill-opacity:1;stroke:#525764;stroke-width:0.264583px;stroke-linecap:butt;stroke-linejoin:miter;stroke-opacity:1"
       d="m 89.054219,264.75116 10.820739,40.38356 87.705482,-0.1094 32.23486,-4.9531 2e-5,-3.68423 -103.64193,-0.14385 -8.48444,-31.66439 z"
       id="path893"
       sodipodi:nodetypes="cccccccc" />
    <circle
       style="fill:#f0f0f0;fill-opacity:1;stroke:#525764;stroke-width:4.73659;stroke-miterlimit:4;stroke-dasharray:none;stroke-opacity:1"
       id="path847"
       cx="52.897411"
       cy="300.10226"
       r="11.304914" />
    <circle
       style="fill:#f0f0f0;fill-opacity:1;stroke:#525764;stroke-width:4.73659;stroke-miterlimit:4;stroke-dasharray:none;stroke-opacity:1"
       id="path847-3"
       cx="202.5132"
       cy="298.85693"
       r="11.304914" />
    <path
       id="path909"
       style="fill:none;stroke:#525764;stroke-width:1;stroke-linecap:butt;stroke-linejoin:miter;stroke-miterlimit:4;stroke-dasharray:none;stroke-opacity:1"
       d="m 187.58042,305.02532 0.26322,-42.30935 m -35.61445,42.4693 -0.0424,-42.4693 m -36.35139,42.68399 0.0281,-42.68399 m -38.880486,42.43625 0.04713,-42.43625"
       sodipodi:nodetypes="cccccccc" />
    <g
       id="g1099"
       transform="matrix(0.12315896,0,0,0.12315896,79.917658,277.97963)"
       style="fill:#ffffff;fill-opacity:1">
      <g
         id="g1073"
         style="fill:#ffffff;fill-opacity:1">
        <path
           class="st0"
           d="m 71.7,58.9 c -2.6,-4.5 -6.5,-8 -12.8,-11.4 3.2,-2 6.3,-3.8 8.2,-7 2.2,-3.4 3,-8.6 2.3,-13.8 C 67.6,14.2 57.7,6.4 41.4,4.8 h -0.2 c -1,-0.1 -3.5,-0.2 -6,0 -0.1,0 -0.2,0 -0.3,0 -9.6,0.9 -17.1,4 -22.4,9 C 6.1,20 3.1,27.7 3.7,36.7 4.4,47.5 12,52.2 19.3,55.4 l 0.1,15.8 v 0 0.2 c 0,7.4 -0.5,14.9 -3.6,19.7 H 9.2 V 94 h 7.2 c 3.1,0 6.4,0 9.5,0 3.3,0 6.6,0 9.8,0 1.5,0 2.9,0 4.3,0 4.3,0 8.5,-0.2 12.3,-0.8 10.9,-1.9 18.1,-7.4 20.9,-15.9 3.7,-9 -0.5,-16.9 -1.5,-18.4 z M 35.1,42.4 c 0,-3.5 0,-7 0,-10.5 0,-5.8 0,-11.9 0.1,-17.6 0,0 0,-0.1 0,-0.2 6.7,1.8 12.6,5.6 16.9,10.9 3.8,4.7 7,12.8 4.5,21.2 -7.7,-2.4 -14.4,-3.6 -21.5,-3.8 z m 0,17.4 4.8,1.2 v 0 c 0.2,0 0.4,0.1 0.6,0.2 l 0.2,0.1 v -0.2 c 0.1,-0.3 0.2,-0.7 0.3,-1 l 0.1,-0.2 h -0.2 c -0.1,0 -0.2,-0.1 -0.4,-0.1 -0.2,-0.1 -0.4,-0.1 -0.6,-0.2 H 39.8 C 38.3,59.2 36.7,58.8 35.1,58.4 V 44.3 c 6.9,0.5 12.8,2.5 15.7,5.5 3.7,3.7 6,9.8 6.4,16.6 0.5,9.1 -1.5,15.8 -5.8,20.1 -3.8,3.7 -9.2,5.4 -16.3,5 z m -20,-30.7 c 0.2,0.2 0.3,0.5 0.5,0.7 1.6,2.3 3.5,4.9 3.8,8.6 0.1,1.3 0.2,2.6 0.1,4.5 l -0.1,9.9 C 12.3,49.6 5.8,45 6.5,32.7 6.8,26.5 9.4,21.4 13.8,17.9 c 3.8,-3 8.7,-4.5 14.3,-4.5 2,0 4,0.2 6.1,0.6 -2.8,7.4 -9,12.2 -19,14.8 L 15,28.9 Z"
           id="path1070"
           style="fill:#ffffff;fill-opacity:1" />
        <polygon
           id="star"
           class="st1"
           points="40.9,60.5 37.8,65.1 43.2,63.8 46.7,68.3 46.9,62.7 51.9,61.2 47.2,59.4 46.9,53.8 43,57.9 38.4,56.2 "
           style="fill:#ffffff;fill-opacity:1" />
      </g>
      <g
         id="g1097"
         style="fill:#ffffff;fill-opacity:1" />
    </g>
    <g
       id="g2413"
       transform="matrix(0.07983742,0,0,0.07983742,94.823493,275.43413)"
       style="fill:#ffffff;fill-opacity:1">
      <polygon
         class="cls-1"
         points="150.02,143.62 150.02,142.08 150.02,133.51 150.02,131.97 148.48,131.97 145.35,131.97 145.35,106.42 158.86,134.28 160.23,137.12 161.62,134.28 175.27,106.36 175.27,131.97 172.28,131.97 170.74,131.97 170.74,133.51 170.74,142.08 170.74,143.62 172.28,143.62 190.36,143.62 191.9,143.62 191.9,142.08 191.9,133.51 191.9,131.97 190.36,131.97 187.25,131.97 187.25,95.96 190.36,95.96 191.9,95.96 191.9,94.43 191.9,85.85 191.9,84.32 190.36,84.32 173.7,84.32 172.73,84.32 172.31,85.19 160.22,110.34 148.1,85.19 147.69,84.32 146.72,84.32 130.63,84.32 129.09,84.32 129.09,85.85 129.09,94.43 129.09,95.96 130.63,95.96 133.38,95.96 133.38,131.97 130.4,131.97 128.86,131.97 128.86,133.51 128.86,142.08 128.86,143.62 130.4,143.62 148.48,143.62 "
         id="polygon1823"
         style="fill:#ffffff;fill-opacity:1" />
      <path
         class="cls-1"
         d="m 86.9,131.94 v 11.64 H 64.08 v -11.64 h 3.51 l -2.6,-6 H 46.18 l -2.6,6 h 3.33 v 11.64 H 24.1 v -11.64 h 6.5 L 46.24,95.77 H 42.78 V 84.11 h 25.16 v 11.66 h -3 l 15.65,36.18 H 86.9 Z M 55.58,104.16 51.21,114.27 H 60 Z"
         id="path1825"
         style="fill:#ffffff;fill-opacity:1" />
      <polygon
         class="cls-1"
         points="134.85,151.49 133.08,151.49 120.51,151.49 120.51,62.16 147.41,62.16 147.41,74.59 147.41,76.35 149.17,76.35 171.23,76.35 172.98,76.35 172.98,74.59 172.98,40.86 172.98,39.11 171.23,39.11 44.36,39.11 42.6,39.11 42.6,40.86 42.6,74.75 42.6,76.51 44.36,76.51 66.27,76.51 68.01,76.51 68.01,74.75 68.01,62.16 95.08,62.16 95.08,151.49 82.49,151.49 80.74,151.49 80.74,153.24 80.74,175.14 80.74,176.89 82.49,176.89 133.08,176.89 134.85,176.89 134.85,175.14 134.85,153.24 "
         id="polygon1827"
         style="fill:#ffffff;fill-opacity:1" />
      <polygon
         class="cls-2"
         points="124.15,166.51 124.15,162.01 129.51,156.5 129.51,171.65 "
         id="polygon1829"
         style="fill:#ffffff;fill-opacity:1" />
      <polygon
         class="cls-2"
         points="115.2,56.98 115.2,156.9 109.84,162.18 109.84,51.63 "
         id="polygon1831"
         style="fill:#ffffff;fill-opacity:1" />
      <polygon
         class="cls-2"
         points="158.07,49.68 53.16,49.68 47.63,44.31 165.01,44.31 "
         id="polygon1833"
         style="fill:#ffffff;fill-opacity:1" />
      <polygon
         class="cls-2"
         points="167.85,47.16 167.85,71.46 162.49,66.34 162.49,52.69 "
         id="polygon1835"
         style="fill:#ffffff;fill-opacity:1" />
      <path
         class="cls-1"
         d="m 140.77,171.62 a 5.2,5.2 0 1 1 5.2,5.2 5.21,5.21 0 0 1 -5.2,-5.2 z m 9.14,0 a 3.94,3.94 0 1 0 -3.94,4.19 4,4 0 0 0 3.94,-4.19 z m -5.94,-3 h 2.19 c 1.41,0 2.17,0.5 2.17,1.73 A 1.47,1.47 0 0 1 146.8,172 l 1.59,2.58 h -1.12 L 145.73,172 h -0.66 v 2.54 H 144 Z m 1.1,2.52 h 1 c 0.65,0 1.21,-0.08 1.21,-0.87 0,-0.79 -0.63,-0.81 -1.19,-0.81 h -1 z"
         id="path1837"
         style="fill:#ffffff;fill-opacity:1" />
    </g>
    <rect
       style="fill:#525764;fill-opacity:1;stroke:none;stroke-width:3.359;stroke-miterlimit:4;stroke-dasharray:none;stroke-opacity:1"
       id="rect2456"
       width="2.0419257"
       height="7.0268931"
       x="88.166473"
       y="229.62476"
       ry="0.43012276" />
    <g
       id="g2477"
       transform="translate(0.13839739,3.2260051)">
      <rect
         style="fill:#c0c3c6;fill-opacity:1;stroke:none;stroke-width:4.4499;stroke-miterlimit:4;stroke-dasharray:none;stroke-opacity:1"
         id="rect2454"
         width="7"
         height="4.7642865"
         x="85.613892"
         y="223.17899"
         ry="0.65799683" />
      <rect
         style="fill:#646464;fill-opacity:1;stroke:none;stroke-width:3.42715;stroke-miterlimit:4;stroke-dasharray:none;stroke-opacity:1"
         id="rect2473"
         width="7"
         height="1.6251042"
         x="85.613892"
         y="224.69209"
         ry="0" />
    </g>
    <g
       id="g2518"
       transform="translate(-1.2955514,1.7800653)">
      <rect
         style="fill:#cc8b22;fill-opacity:1;stroke:none;stroke-width:4.98457;stroke-miterlimit:4;stroke-dasharray:none;stroke-opacity:1"
         id="rect2481"
         width="2.0038476"
         height="2.0038476"
         x="189.12871"
         y="224.2652" />
      <rect
         style="fill:#cc8b22;fill-opacity:1;stroke:none;stroke-width:3.12871;stroke-miterlimit:4;stroke-dasharray:none;stroke-opacity:1"
         id="rect2511"
         width="0.46992752"
         height="0.92395049"
         x="189.89566"
         y="226.20589" />
      <rect
         style="fill:#228b22;fill-opacity:1;stroke:none;stroke-width:3.5841;stroke-miterlimit:4;stroke-dasharray:none;stroke-opacity:1"
         id="rect2479"
         width="3.9431088"
         height="3.9431088"
         x="187.18945"
         y="226.87636" />
    </g>
  </g>
</svg>
