<?xml version="1.0" encoding="utf-8" standalone="no"?>
<!DOCTYPE svg PUBLIC "-//W3C//DTD SVG 1.1//EN"
  "http://www.w3.org/Graphics/SVG/1.1/DTD/svg11.dtd">
<svg xmlns:xlink="http://www.w3.org/1999/xlink" width="360pt" height="216pt" viewBox="0 0 360 216" xmlns="http://www.w3.org/2000/svg" version="1.1">
 <metadata>
  <rdf:RDF xmlns:dc="http://purl.org/dc/elements/1.1/" xmlns:cc="http://creativecommons.org/ns#" xmlns:rdf="http://www.w3.org/1999/02/22-rdf-syntax-ns#">
   <cc:Work>
    <dc:type rdf:resource="http://purl.org/dc/dcmitype/StillImage"/>
    <dc:date>2026-02-11T15:26:04.759352</dc:date>
    <dc:format>image/svg+xml</dc:format>
    <dc:creator>
     <cc:Agent>
      <dc:title>Matplotlib v3.10.8, https://matplotlib.org/</dc:title>
     </cc:Agent>
    </dc:creator>
   </cc:Work>
  </rdf:RDF>
 </metadata>
 <defs>
  <style type="text/css">*{stroke-linejoin: round; stroke-linecap: butt}</style>
 </defs>
 <g id="figure_1">
  <g id="patch_1">
   <path d="M 0 216 
L 360 216 
L 360 0 
L 0 0 
z
" style="fill: #ffffff"/>
  </g>
  <g id="axes_1">
   <g id="patch_2">
    <path d="M 44.492719 175.381683 
L 342.834961 175.381683 
L 342.834961 14.259249 
L 44.492719 14.259249 
z
" style="fill: #ffffff"/>
   </g>
   <g id="matplotlib.axis_1">
    <g id="xtick_1">
     <g id="line2d_1">
      <path d="M 44.492719 175.381683 
L 44.492719 14.259249 
" clip-path="url(#pbd33c882c7)" style="fill: none; stroke: #b0b0b0; stroke-width: 0.8; stroke-linecap: square"/>
     </g>
     <g id="line2d_2">
      <defs>
       <path id="m3977eacc66" d="M 0 0 
L 0 3.5 
" style="stroke: #000000; stroke-width: 0.8"/>
      </defs>
      <g>
       <use xlink:href="#m3977eacc66" x="44.492719" y="175.381683" style="stroke: #000000; stroke-width: 0.8"/>
      </g>
     </g>
     <g id="text_1">
      <!-- $\mathdefault{0.0}$ -->
      <g transform="translate(38.12768 189.300182) scale(0.1 -0.1)">
       <defs>
        <path id="CMR17-30" d="M 2688 2025 
C 2688 2416 2682 3080 2413 3591 
C 2176 4039 1798 4198 1466 4198 
C 1158 4198 768 4058 525 3597 
C 269 3118 243 2524 243 2025 
C 243 1661 250 1106 448 619 
C 723 -39 1216 -128 1466 -128 
C 1760 -128 2208 -7 2470 600 
C 2662 1042 2688 1559 2688 2025 
z
M 1466 -26 
C 1056 -26 813 325 723 812 
C 653 1188 653 1738 653 2096 
C 653 2588 653 2997 736 3387 
C 858 3929 1216 4096 1466 4096 
C 1728 4096 2067 3923 2189 3400 
C 2272 3036 2278 2607 2278 2096 
C 2278 1680 2278 1169 2202 792 
C 2067 95 1690 -26 1466 -26 
z
" transform="scale(0.015625)"/>
        <path id="CMMI12-3a" d="M 1178 307 
C 1178 492 1024 619 870 619 
C 685 619 557 466 557 313 
C 557 128 710 0 864 0 
C 1050 0 1178 153 1178 307 
z
" transform="scale(0.015625)"/>
       </defs>
       <use xlink:href="#CMR17-30" transform="scale(0.996264)"/>
       <use xlink:href="#CMMI12-3a" transform="translate(45.690477 0) scale(0.996264)"/>
       <use xlink:href="#CMR17-30" transform="translate(72.787654 0) scale(0.996264)"/>
      </g>
     </g>
    </g>
    <g id="xtick_2">
     <g id="line2d_3">
      <path d="M 94.216426 175.381683 
L 94.216426 14.259249 
" clip-path="url(#pbd33c882c7)" style="fill: none; stroke: #b0b0b0; stroke-width: 0.8; stroke-linecap: square"/>
     </g>
     <g id="line2d_4">
      <g>
       <use xlink:href="#m3977eacc66" x="94.216426" y="175.381683" style="stroke: #000000; stroke-width: 0.8"/>
      </g>
     </g>
     <g id="text_2">
      <!-- $\mathdefault{0.2}$ -->
      <g transform="translate(87.851386 189.300182) scale(0.1 -0.1)">
       <defs>
        <path id="CMR17-32" d="M 2669 989 
L 2554 989 
C 2490 536 2438 459 2413 420 
C 2381 369 1920 369 1830 369 
L 602 369 
C 832 619 1280 1072 1824 1597 
C 2214 1967 2669 2402 2669 3035 
C 2669 3790 2067 4224 1395 4224 
C 691 4224 262 3604 262 3030 
C 262 2780 448 2748 525 2748 
C 589 2748 781 2787 781 3010 
C 781 3207 614 3264 525 3264 
C 486 3264 448 3258 422 3245 
C 544 3790 915 4058 1306 4058 
C 1862 4058 2227 3617 2227 3035 
C 2227 2479 1901 2000 1536 1584 
L 262 146 
L 262 0 
L 2515 0 
L 2669 989 
z
" transform="scale(0.015625)"/>
       </defs>
       <use xlink:href="#CMR17-30" transform="scale(0.996264)"/>
       <use xlink:href="#CMMI12-3a" transform="translate(45.690477 0) scale(0.996264)"/>
       <use xlink:href="#CMR17-32" transform="translate(72.787654 0) scale(0.996264)"/>
      </g>
     </g>
    </g>
    <g id="xtick_3">
     <g id="line2d_5">
      <path d="M 143.940133 175.381683 
L 143.940133 14.259249 
" clip-path="url(#pbd33c882c7)" style="fill: none; stroke: #b0b0b0; stroke-width: 0.8; stroke-linecap: square"/>
     </g>
     <g id="line2d_6">
      <g>
       <use xlink:href="#m3977eacc66" x="143.940133" y="175.381683" style="stroke: #000000; stroke-width: 0.8"/>
      </g>
     </g>
     <g id="text_3">
      <!-- $\mathdefault{0.4}$ -->
      <g transform="translate(137.575093 189.300182) scale(0.1 -0.1)">
       <defs>
        <path id="CMR17-34" d="M 2150 4122 
C 2150 4256 2144 4256 2029 4256 
L 128 1254 
L 128 1088 
L 1779 1088 
L 1779 457 
C 1779 224 1766 160 1318 160 
L 1197 160 
L 1197 0 
C 1402 0 1747 0 1965 0 
C 2182 0 2528 0 2733 0 
L 2733 160 
L 2611 160 
C 2163 160 2150 224 2150 457 
L 2150 1088 
L 2803 1088 
L 2803 1254 
L 2150 1254 
L 2150 4122 
z
M 1798 3703 
L 1798 1254 
L 256 1254 
L 1798 3703 
z
" transform="scale(0.015625)"/>
       </defs>
       <use xlink:href="#CMR17-30" transform="scale(0.996264)"/>
       <use xlink:href="#CMMI12-3a" transform="translate(45.690477 0) scale(0.996264)"/>
       <use xlink:href="#CMR17-34" transform="translate(72.787654 0) scale(0.996264)"/>
      </g>
     </g>
    </g>
    <g id="xtick_4">
     <g id="line2d_7">
      <path d="M 193.66384 175.381683 
L 193.66384 14.259249 
" clip-path="url(#pbd33c882c7)" style="fill: none; stroke: #b0b0b0; stroke-width: 0.8; stroke-linecap: square"/>
     </g>
     <g id="line2d_8">
      <g>
       <use xlink:href="#m3977eacc66" x="193.66384" y="175.381683" style="stroke: #000000; stroke-width: 0.8"/>
      </g>
     </g>
     <g id="text_4">
      <!-- $\mathdefault{0.6}$ -->
      <g transform="translate(187.2988 189.300182) scale(0.1 -0.1)">
       <defs>
        <path id="CMR17-36" d="M 678 2176 
C 678 3690 1395 4032 1811 4032 
C 1946 4032 2272 4009 2400 3776 
C 2298 3776 2106 3776 2106 3553 
C 2106 3381 2246 3323 2336 3323 
C 2394 3323 2566 3348 2566 3560 
C 2566 3954 2246 4179 1805 4179 
C 1043 4179 243 3390 243 1984 
C 243 253 966 -128 1478 -128 
C 2099 -128 2688 427 2688 1283 
C 2688 2081 2170 2662 1517 2662 
C 1126 2662 838 2407 678 1960 
L 678 2176 
z
M 1478 25 
C 691 25 691 1200 691 1436 
C 691 1896 909 2560 1504 2560 
C 1613 2560 1926 2560 2138 2120 
C 2253 1870 2253 1609 2253 1289 
C 2253 944 2253 690 2118 434 
C 1978 171 1773 25 1478 25 
z
" transform="scale(0.015625)"/>
       </defs>
       <use xlink:href="#CMR17-30" transform="scale(0.996264)"/>
       <use xlink:href="#CMMI12-3a" transform="translate(45.690477 0) scale(0.996264)"/>
       <use xlink:href="#CMR17-36" transform="translate(72.787654 0) scale(0.996264)"/>
      </g>
     </g>
    </g>
    <g id="xtick_5">
     <g id="line2d_9">
      <path d="M 243.387547 175.381683 
L 243.387547 14.259249 
" clip-path="url(#pbd33c882c7)" style="fill: none; stroke: #b0b0b0; stroke-width: 0.8; stroke-linecap: square"/>
     </g>
     <g id="line2d_10">
      <g>
       <use xlink:href="#m3977eacc66" x="243.387547" y="175.381683" style="stroke: #000000; stroke-width: 0.8"/>
      </g>
     </g>
     <g id="text_5">
      <!-- $\mathdefault{0.8}$ -->
      <g transform="translate(237.022507 189.300182) scale(0.1 -0.1)">
       <defs>
        <path id="CMR17-38" d="M 1741 2264 
C 2144 2467 2554 2773 2554 3263 
C 2554 3841 1990 4179 1472 4179 
C 890 4179 378 3759 378 3180 
C 378 3021 416 2747 666 2505 
C 730 2442 998 2251 1171 2130 
C 883 1983 211 1634 211 934 
C 211 279 838 -128 1459 -128 
C 2144 -128 2720 362 2720 1010 
C 2720 1590 2330 1857 2074 2029 
L 1741 2264 
z
M 902 2822 
C 851 2854 595 3051 595 3351 
C 595 3739 998 4032 1459 4032 
C 1965 4032 2336 3676 2336 3262 
C 2336 2669 1670 2331 1638 2331 
C 1632 2331 1626 2331 1574 2370 
L 902 2822 
z
M 2080 1519 
C 2176 1449 2483 1240 2483 851 
C 2483 381 2010 25 1472 25 
C 890 25 448 438 448 940 
C 448 1443 838 1862 1280 2060 
L 2080 1519 
z
" transform="scale(0.015625)"/>
       </defs>
       <use xlink:href="#CMR17-30" transform="scale(0.996264)"/>
       <use xlink:href="#CMMI12-3a" transform="translate(45.690477 0) scale(0.996264)"/>
       <use xlink:href="#CMR17-38" transform="translate(72.787654 0) scale(0.996264)"/>
      </g>
     </g>
    </g>
    <g id="xtick_6">
     <g id="line2d_11">
      <path d="M 293.111254 175.381683 
L 293.111254 14.259249 
" clip-path="url(#pbd33c882c7)" style="fill: none; stroke: #b0b0b0; stroke-width: 0.8; stroke-linecap: square"/>
     </g>
     <g id="line2d_12">
      <g>
       <use xlink:href="#m3977eacc66" x="293.111254" y="175.381683" style="stroke: #000000; stroke-width: 0.8"/>
      </g>
     </g>
     <g id="text_6">
      <!-- $\mathdefault{1.0}$ -->
      <g transform="translate(286.746214 189.300182) scale(0.1 -0.1)">
       <defs>
        <path id="CMR17-31" d="M 1702 4058 
C 1702 4192 1696 4192 1606 4192 
C 1357 3916 979 3827 621 3827 
C 602 3827 570 3827 563 3808 
C 557 3795 557 3782 557 3648 
C 755 3648 1088 3686 1344 3839 
L 1344 461 
C 1344 236 1331 160 781 160 
L 589 160 
L 589 0 
C 896 0 1216 0 1523 0 
C 1830 0 2150 0 2458 0 
L 2458 160 
L 2266 160 
C 1715 160 1702 230 1702 458 
L 1702 4058 
z
" transform="scale(0.015625)"/>
       </defs>
       <use xlink:href="#CMR17-31" transform="scale(0.996264)"/>
       <use xlink:href="#CMMI12-3a" transform="translate(45.690477 0) scale(0.996264)"/>
       <use xlink:href="#CMR17-30" transform="translate(72.787654 0) scale(0.996264)"/>
      </g>
     </g>
    </g>
    <g id="xtick_7">
     <g id="line2d_13">
      <path d="M 342.834961 175.381683 
L 342.834961 14.259249 
" clip-path="url(#pbd33c882c7)" style="fill: none; stroke: #b0b0b0; stroke-width: 0.8; stroke-linecap: square"/>
     </g>
     <g id="line2d_14">
      <g>
       <use xlink:href="#m3977eacc66" x="342.834961" y="175.381683" style="stroke: #000000; stroke-width: 0.8"/>
      </g>
     </g>
     <g id="text_7">
      <!-- $\mathdefault{1.2}$ -->
      <g transform="translate(336.469921 189.300182) scale(0.1 -0.1)">
       <use xlink:href="#CMR17-31" transform="scale(0.996264)"/>
       <use xlink:href="#CMMI12-3a" transform="translate(45.690477 0) scale(0.996264)"/>
       <use xlink:href="#CMR17-32" transform="translate(72.787654 0) scale(0.996264)"/>
      </g>
     </g>
    </g>
    <g id="text_8">
     <!-- Local Frame Position Error Threshold [m] -->
     <g transform="translate(106.69816 202.70934) scale(0.1 -0.1)">
      <defs>
       <path id="CMSS17-4c" d="M 1670 414 
C 1594 414 1517 414 1440 414 
L 1101 414 
L 1101 4416 
L 563 4416 
L 563 0 
L 3002 0 
L 3002 414 
L 1670 414 
z
" transform="scale(0.015625)"/>
       <path id="CMSS17-6f" d="M 2829 1356 
C 2829 2176 2221 2816 1504 2816 
C 768 2816 173 2157 173 1356 
C 173 544 787 -64 1498 -64 
C 2227 -64 2829 563 2829 1356 
z
M 1504 337 
C 1050 337 659 709 659 1408 
C 659 2151 1114 2427 1498 2427 
C 1914 2427 2342 2126 2342 1408 
C 2342 683 1926 337 1504 337 
z
" transform="scale(0.015625)"/>
       <path id="CMSS17-63" d="M 2464 2541 
C 2464 2585 2170 2714 2093 2739 
C 1882 2816 1613 2816 1542 2816 
C 710 2816 211 2093 211 1363 
C 211 595 768 -64 1517 -64 
C 1946 -64 2253 76 2502 242 
L 2464 664 
C 2189 453 1869 337 1523 337 
C 1024 337 698 774 698 1369 
C 698 1831 909 2414 1549 2414 
C 1901 2414 2099 2343 2394 2145 
L 2464 2541 
z
" transform="scale(0.015625)"/>
       <path id="CMSS17-61" d="M 2406 1791 
C 2406 2392 1978 2808 1402 2808 
C 1120 2808 813 2757 461 2553 
L 499 2135 
C 659 2248 934 2432 1395 2432 
C 1722 2432 1920 2180 1920 1782 
L 1920 1536 
C 896 1536 256 1238 256 726 
C 256 461 416 -64 947 -64 
C 1043 -64 1562 -64 1933 217 
L 1933 -19 
L 2406 -19 
L 2406 1791 
z
M 1920 816 
C 1920 701 1920 548 1728 434 
C 1562 325 1350 325 1261 325 
C 941 325 723 511 723 744 
C 723 1211 1722 1211 1920 1211 
L 1920 816 
z
" transform="scale(0.015625)"/>
       <path id="CMSS17-6c" d="M 947 4416 
L 474 4416 
L 474 0 
L 947 0 
L 947 4416 
z
" transform="scale(0.015625)"/>
       <path id="CMSS17-46" d="M 2918 1984 
L 2918 2373 
L 1101 2373 
L 1101 3968 
L 1882 3968 
C 1958 3968 2035 3968 2112 3968 
L 3168 3968 
L 3168 4375 
L 563 4375 
L 563 -32 
L 1101 -32 
L 1101 1984 
L 2918 1984 
z
" transform="scale(0.015625)"/>
       <path id="CMSS17-72" d="M 954 1363 
C 954 1965 1395 2368 1958 2368 
L 1958 2789 
C 1549 2789 1165 2585 934 2253 
L 934 2758 
L 480 2758 
L 480 0 
L 954 0 
L 954 1363 
z
" transform="scale(0.015625)"/>
       <path id="CMSS17-6d" d="M 4288 1877 
C 4288 2308 4179 2816 3462 2816 
C 2982 2816 2694 2516 2566 2331 
C 2451 2670 2182 2816 1798 2816 
C 1363 2816 1088 2568 941 2389 
L 941 2758 
L 474 2758 
L 474 0 
L 960 0 
L 960 1559 
C 960 1939 1101 2428 1555 2428 
C 2138 2428 2138 2016 2138 1829 
L 2138 0 
L 2624 0 
L 2624 1559 
C 2624 1939 2765 2428 3219 2428 
C 3802 2428 3802 2016 3802 1829 
L 3802 0 
L 4288 0 
L 4288 1877 
z
" transform="scale(0.015625)"/>
       <path id="CMSS17-65" d="M 2502 1377 
C 2502 1590 2490 2003 2285 2345 
C 2061 2713 1696 2816 1421 2816 
C 755 2816 192 2188 192 1375 
C 192 582 774 -64 1510 -64 
C 1798 -64 2150 19 2470 248 
C 2470 274 2458 414 2451 420 
C 2451 433 2432 630 2432 656 
C 2125 407 1773 325 1517 325 
C 1107 325 666 667 646 1377 
L 2502 1377 
z
M 698 1728 
C 781 2084 1062 2421 1421 2421 
C 1517 2421 1965 2421 2080 1728 
L 698 1728 
z
" transform="scale(0.015625)"/>
       <path id="CMSS17-50" d="M 2106 1856 
C 2874 1856 3501 2453 3501 3158 
C 3501 3850 2899 4453 2067 4453 
L 570 4453 
L 570 0 
L 1107 0 
L 1107 1856 
L 2106 1856 
z
M 1926 4096 
C 2669 4096 2995 3627 2995 3157 
C 2995 2720 2694 2226 1926 2226 
L 1094 2226 
L 1094 4096 
L 1926 4096 
z
" transform="scale(0.015625)"/>
       <path id="CMSS17-73" d="M 2061 2627 
C 1683 2807 1389 2807 1197 2807 
C 742 2807 198 2648 198 2003 
C 198 1359 902 1218 1094 1179 
C 1389 1122 1715 1058 1715 740 
C 1715 337 1254 337 1171 337 
C 915 337 563 407 243 638 
L 166 210 
C 531 0 883 -64 1178 -64 
C 1965 -64 2163 416 2163 781 
C 2163 1094 1984 1305 1862 1401 
C 1651 1568 1574 1587 1050 1696 
C 960 1709 646 1779 646 2066 
C 646 2432 1050 2432 1139 2432 
C 1555 2432 1811 2303 1984 2208 
L 2061 2627 
z
" transform="scale(0.015625)"/>
       <path id="CMSS17-69" d="M 979 4183 
L 442 4183 
L 442 3648 
L 979 3648 
L 979 4183 
z
M 947 2739 
L 474 2739 
L 474 0 
L 947 0 
L 947 2739 
z
" transform="scale(0.015625)"/>
       <path id="CMSS17-74" d="M 1069 2368 
L 1901 2368 
L 1901 2737 
L 1069 2737 
L 1069 3520 
L 614 3520 
L 614 2737 
L 109 2737 
L 109 2368 
L 602 2368 
L 602 749 
C 602 384 685 -64 1107 -64 
C 1427 -64 1722 25 2003 172 
L 1901 548 
C 1747 414 1562 337 1363 337 
C 1082 337 1069 696 1069 856 
L 1069 2368 
z
" transform="scale(0.015625)"/>
       <path id="CMSS17-6e" d="M 2618 1877 
C 2618 2283 2522 2816 1798 2816 
C 1389 2816 1120 2606 941 2389 
L 941 2758 
L 474 2758 
L 474 0 
L 960 0 
L 960 1559 
C 960 1964 1114 2428 1549 2428 
C 2112 2428 2131 2048 2131 1829 
L 2131 0 
L 2618 0 
L 2618 1877 
z
" transform="scale(0.015625)"/>
       <path id="CMSS17-45" d="M 1958 433 
C 1446 433 1216 433 1101 433 
L 1101 2107 
L 3085 2107 
L 3085 2496 
L 1101 2496 
L 1101 4009 
L 1926 4009 
C 2003 4009 2080 4009 2157 4009 
L 3251 4009 
L 3251 4416 
L 563 4416 
L 563 0 
L 3334 0 
L 3334 433 
L 1958 433 
z
" transform="scale(0.015625)"/>
       <path id="CMSS17-54" d="M 2317 3968 
L 2848 3968 
C 2925 3968 3002 3968 3078 3968 
L 3878 3968 
L 3878 4376 
L 218 4376 
L 218 3968 
L 1018 3968 
C 1094 3968 1171 3968 1248 3968 
L 1779 3968 
L 1779 -32 
L 2317 -32 
L 2317 3968 
z
" transform="scale(0.015625)"/>
       <path id="CMSS17-68" d="M 2618 1891 
C 2618 2292 2522 2820 1798 2820 
C 1395 2820 1133 2623 947 2407 
L 947 4448 
L 474 4448 
L 474 32 
L 960 32 
L 960 1573 
C 960 1973 1114 2432 1549 2432 
C 2112 2432 2131 2056 2131 1839 
L 2131 32 
L 2618 32 
L 2618 1891 
z
" transform="scale(0.015625)"/>
       <path id="CMSS17-64" d="M 2611 4416 
L 2138 4416 
L 2138 2438 
C 1939 2603 1613 2756 1254 2756 
C 672 2756 211 2131 211 1347 
C 211 562 666 -64 1235 -64 
C 1677 -64 1971 172 2125 306 
L 2125 -13 
L 2611 -13 
L 2611 4416 
z
M 2125 836 
C 2125 747 2125 653 1926 482 
C 1798 375 1645 325 1498 325 
C 1152 325 698 576 698 1340 
C 698 2134 1210 2368 1562 2368 
C 1798 2368 1990 2254 2125 2065 
L 2125 836 
z
" transform="scale(0.015625)"/>
       <path id="CMSS17-5b" d="M 1613 -1600 
L 1613 -1212 
L 1062 -1212 
L 1062 4352 
L 1613 4352 
L 1613 4741 
L 595 4741 
L 595 -1600 
L 1613 -1600 
z
" transform="scale(0.015625)"/>
       <path id="CMSS17-5d" d="M 1146 4741 
L 128 4741 
L 128 4352 
L 678 4352 
L 678 -1212 
L 128 -1212 
L 128 -1600 
L 1146 -1600 
L 1146 4741 
z
" transform="scale(0.015625)"/>
      </defs>
      <use xlink:href="#CMSS17-4c" transform="scale(0.996264)"/>
      <use xlink:href="#CMSS17-6f" transform="translate(50.687105 0) scale(0.996264)"/>
      <use xlink:href="#CMSS17-63" transform="translate(100.133168 0) scale(0.996264)"/>
      <use xlink:href="#CMSS17-61" transform="translate(141.77199 0) scale(0.996264)"/>
      <use xlink:href="#CMSS17-6c" transform="translate(186.69391 0) scale(0.996264)"/>
      <use xlink:href="#CMSS17-46" transform="translate(240.103746 0) scale(0.996264)"/>
      <use xlink:href="#CMSS17-72" transform="translate(290.790851 0) scale(0.996264)"/>
      <use xlink:href="#CMSS17-61" transform="translate(322.700624 0) scale(0.996264)"/>
      <use xlink:href="#CMSS17-6d" transform="translate(367.622545 0) scale(0.996264)"/>
      <use xlink:href="#CMSS17-65" transform="translate(441.851799 0) scale(0.996264)"/>
      <use xlink:href="#CMSS17-50" transform="translate(514.719734 0) scale(0.996264)"/>
      <use xlink:href="#CMSS17-6f" transform="translate(571.852866 0) scale(0.996264)"/>
      <use xlink:href="#CMSS17-73" transform="translate(618.69649 0) scale(0.996264)"/>
      <use xlink:href="#CMSS17-69" transform="translate(654.610032 0) scale(0.996264)"/>
      <use xlink:href="#CMSS17-74" transform="translate(676.790755 0) scale(0.996264)"/>
      <use xlink:href="#CMSS17-69" transform="translate(710.622321 0) scale(0.996264)"/>
      <use xlink:href="#CMSS17-6f" transform="translate(732.803044 0) scale(0.996264)"/>
      <use xlink:href="#CMSS17-6e" transform="translate(779.646668 0) scale(0.996264)"/>
      <use xlink:href="#CMSS17-45" transform="translate(859.080724 0) scale(0.996264)"/>
      <use xlink:href="#CMSS17-72" transform="translate(914.972737 0) scale(0.996264)"/>
      <use xlink:href="#CMSS17-72" transform="translate(946.88251 0) scale(0.996264)"/>
      <use xlink:href="#CMSS17-6f" transform="translate(978.792282 0) scale(0.996264)"/>
      <use xlink:href="#CMSS17-72" transform="translate(1023.033452 0) scale(0.996264)"/>
      <use xlink:href="#CMSS17-54" transform="translate(1086.172337 0) scale(0.996264)"/>
      <use xlink:href="#CMSS17-68" transform="translate(1149.991791 0) scale(0.996264)"/>
      <use xlink:href="#CMSS17-72" transform="translate(1198.196734 0) scale(0.996264)"/>
      <use xlink:href="#CMSS17-65" transform="translate(1230.106507 0) scale(0.996264)"/>
      <use xlink:href="#CMSS17-73" transform="translate(1271.745329 0) scale(0.996264)"/>
      <use xlink:href="#CMSS17-68" transform="translate(1307.658871 0) scale(0.996264)"/>
      <use xlink:href="#CMSS17-6f" transform="translate(1355.863814 0) scale(0.996264)"/>
      <use xlink:href="#CMSS17-6c" transform="translate(1402.707437 0) scale(0.996264)"/>
      <use xlink:href="#CMSS17-64" transform="translate(1424.88816 0) scale(0.996264)"/>
      <use xlink:href="#CMSS17-5b" transform="translate(1504.322216 0) scale(0.996264)"/>
      <use xlink:href="#CMSS17-6d" transform="translate(1531.507655 0) scale(0.996264)"/>
      <use xlink:href="#CMSS17-5d" transform="translate(1605.736909 0) scale(0.996264)"/>
     </g>
    </g>
   </g>
   <g id="matplotlib.axis_2">
    <g id="ytick_1">
     <g id="line2d_15">
      <path d="M 44.492719 175.381683 
L 342.834961 175.381683 
" clip-path="url(#pbd33c882c7)" style="fill: none; stroke: #b0b0b0; stroke-width: 0.8; stroke-linecap: square"/>
     </g>
     <g id="line2d_16">
      <defs>
       <path id="mb1f049062b" d="M 0 0 
L -3.5 0 
" style="stroke: #000000; stroke-width: 0.8"/>
      </defs>
      <g>
       <use xlink:href="#mb1f049062b" x="44.492719" y="175.381683" style="stroke: #000000; stroke-width: 0.8"/>
      </g>
     </g>
     <g id="text_9">
      <!-- $\mathdefault{0.0}$ -->
      <g transform="translate(24.76264 178.840932) scale(0.1 -0.1)">
       <use xlink:href="#CMR17-30" transform="scale(0.996264)"/>
       <use xlink:href="#CMMI12-3a" transform="translate(45.690477 0) scale(0.996264)"/>
       <use xlink:href="#CMR17-30" transform="translate(72.787654 0) scale(0.996264)"/>
      </g>
     </g>
    </g>
    <g id="ytick_2">
     <g id="line2d_17">
      <path d="M 44.492719 148.527944 
L 342.834961 148.527944 
" clip-path="url(#pbd33c882c7)" style="fill: none; stroke: #b0b0b0; stroke-width: 0.8; stroke-linecap: square"/>
     </g>
     <g id="line2d_18">
      <g>
       <use xlink:href="#mb1f049062b" x="44.492719" y="148.527944" style="stroke: #000000; stroke-width: 0.8"/>
      </g>
     </g>
     <g id="text_10">
      <!-- $\mathdefault{0.2}$ -->
      <g transform="translate(24.76264 151.987193) scale(0.1 -0.1)">
       <use xlink:href="#CMR17-30" transform="scale(0.996264)"/>
       <use xlink:href="#CMMI12-3a" transform="translate(45.690477 0) scale(0.996264)"/>
       <use xlink:href="#CMR17-32" transform="translate(72.787654 0) scale(0.996264)"/>
      </g>
     </g>
    </g>
    <g id="ytick_3">
     <g id="line2d_19">
      <path d="M 44.492719 121.674205 
L 342.834961 121.674205 
" clip-path="url(#pbd33c882c7)" style="fill: none; stroke: #b0b0b0; stroke-width: 0.8; stroke-linecap: square"/>
     </g>
     <g id="line2d_20">
      <g>
       <use xlink:href="#mb1f049062b" x="44.492719" y="121.674205" style="stroke: #000000; stroke-width: 0.8"/>
      </g>
     </g>
     <g id="text_11">
      <!-- $\mathdefault{0.4}$ -->
      <g transform="translate(24.76264 125.133454) scale(0.1 -0.1)">
       <use xlink:href="#CMR17-30" transform="scale(0.996264)"/>
       <use xlink:href="#CMMI12-3a" transform="translate(45.690477 0) scale(0.996264)"/>
       <use xlink:href="#CMR17-34" transform="translate(72.787654 0) scale(0.996264)"/>
      </g>
     </g>
    </g>
    <g id="ytick_4">
     <g id="line2d_21">
      <path d="M 44.492719 94.820466 
L 342.834961 94.820466 
" clip-path="url(#pbd33c882c7)" style="fill: none; stroke: #b0b0b0; stroke-width: 0.8; stroke-linecap: square"/>
     </g>
     <g id="line2d_22">
      <g>
       <use xlink:href="#mb1f049062b" x="44.492719" y="94.820466" style="stroke: #000000; stroke-width: 0.8"/>
      </g>
     </g>
     <g id="text_12">
      <!-- $\mathdefault{0.6}$ -->
      <g transform="translate(24.76264 98.279715) scale(0.1 -0.1)">
       <use xlink:href="#CMR17-30" transform="scale(0.996264)"/>
       <use xlink:href="#CMMI12-3a" transform="translate(45.690477 0) scale(0.996264)"/>
       <use xlink:href="#CMR17-36" transform="translate(72.787654 0) scale(0.996264)"/>
      </g>
     </g>
    </g>
    <g id="ytick_5">
     <g id="line2d_23">
      <path d="M 44.492719 67.966727 
L 342.834961 67.966727 
" clip-path="url(#pbd33c882c7)" style="fill: none; stroke: #b0b0b0; stroke-width: 0.8; stroke-linecap: square"/>
     </g>
     <g id="line2d_24">
      <g>
       <use xlink:href="#mb1f049062b" x="44.492719" y="67.966727" style="stroke: #000000; stroke-width: 0.8"/>
      </g>
     </g>
     <g id="text_13">
      <!-- $\mathdefault{0.8}$ -->
      <g transform="translate(24.76264 71.425976) scale(0.1 -0.1)">
       <use xlink:href="#CMR17-30" transform="scale(0.996264)"/>
       <use xlink:href="#CMMI12-3a" transform="translate(45.690477 0) scale(0.996264)"/>
       <use xlink:href="#CMR17-38" transform="translate(72.787654 0) scale(0.996264)"/>
      </g>
     </g>
    </g>
    <g id="ytick_6">
     <g id="line2d_25">
      <path d="M 44.492719 41.112988 
L 342.834961 41.112988 
" clip-path="url(#pbd33c882c7)" style="fill: none; stroke: #b0b0b0; stroke-width: 0.8; stroke-linecap: square"/>
     </g>
     <g id="line2d_26">
      <g>
       <use xlink:href="#mb1f049062b" x="44.492719" y="41.112988" style="stroke: #000000; stroke-width: 0.8"/>
      </g>
     </g>
     <g id="text_14">
      <!-- $\mathdefault{1.0}$ -->
      <g transform="translate(24.76264 44.572237) scale(0.1 -0.1)">
       <use xlink:href="#CMR17-31" transform="scale(0.996264)"/>
       <use xlink:href="#CMMI12-3a" transform="translate(45.690477 0) scale(0.996264)"/>
       <use xlink:href="#CMR17-30" transform="translate(72.787654 0) scale(0.996264)"/>
      </g>
     </g>
    </g>
    <g id="ytick_7">
     <g id="line2d_27">
      <path d="M 44.492719 14.259249 
L 342.834961 14.259249 
" clip-path="url(#pbd33c882c7)" style="fill: none; stroke: #b0b0b0; stroke-width: 0.8; stroke-linecap: square"/>
     </g>
     <g id="line2d_28">
      <g>
       <use xlink:href="#mb1f049062b" x="44.492719" y="14.259249" style="stroke: #000000; stroke-width: 0.8"/>
      </g>
     </g>
     <g id="text_15">
      <!-- $\mathdefault{1.2}$ -->
      <g transform="translate(24.76264 17.718498) scale(0.1 -0.1)">
       <use xlink:href="#CMR17-31" transform="scale(0.996264)"/>
       <use xlink:href="#CMMI12-3a" transform="translate(45.690477 0) scale(0.996264)"/>
       <use xlink:href="#CMR17-32" transform="translate(72.787654 0) scale(0.996264)"/>
      </g>
     </g>
    </g>
    <g id="text_16">
     <!-- Local Frame Position Error [m] -->
     <g transform="translate(18.27198 159.50855) rotate(-90) scale(0.1 -0.1)">
      <use xlink:href="#CMSS17-4c" transform="scale(0.996264)"/>
      <use xlink:href="#CMSS17-6f" transform="translate(50.687105 0) scale(0.996264)"/>
      <use xlink:href="#CMSS17-63" transform="translate(100.133168 0) scale(0.996264)"/>
      <use xlink:href="#CMSS17-61" transform="translate(141.77199 0) scale(0.996264)"/>
      <use xlink:href="#CMSS17-6c" transform="translate(186.69391 0) scale(0.996264)"/>
      <use xlink:href="#CMSS17-46" transform="translate(240.103746 0) scale(0.996264)"/>
      <use xlink:href="#CMSS17-72" transform="translate(290.790851 0) scale(0.996264)"/>
      <use xlink:href="#CMSS17-61" transform="translate(322.700624 0) scale(0.996264)"/>
      <use xlink:href="#CMSS17-6d" transform="translate(367.622545 0) scale(0.996264)"/>
      <use xlink:href="#CMSS17-65" transform="translate(441.851799 0) scale(0.996264)"/>
      <use xlink:href="#CMSS17-50" transform="translate(514.719734 0) scale(0.996264)"/>
      <use xlink:href="#CMSS17-6f" transform="translate(571.852866 0) scale(0.996264)"/>
      <use xlink:href="#CMSS17-73" transform="translate(618.69649 0) scale(0.996264)"/>
      <use xlink:href="#CMSS17-69" transform="translate(654.610032 0) scale(0.996264)"/>
      <use xlink:href="#CMSS17-74" transform="translate(676.790755 0) scale(0.996264)"/>
      <use xlink:href="#CMSS17-69" transform="translate(710.622321 0) scale(0.996264)"/>
      <use xlink:href="#CMSS17-6f" transform="translate(732.803044 0) scale(0.996264)"/>
      <use xlink:href="#CMSS17-6e" transform="translate(779.646668 0) scale(0.996264)"/>
      <use xlink:href="#CMSS17-45" transform="translate(859.080724 0) scale(0.996264)"/>
      <use xlink:href="#CMSS17-72" transform="translate(914.972737 0) scale(0.996264)"/>
      <use xlink:href="#CMSS17-72" transform="translate(946.88251 0) scale(0.996264)"/>
      <use xlink:href="#CMSS17-6f" transform="translate(978.792282 0) scale(0.996264)"/>
      <use xlink:href="#CMSS17-72" transform="translate(1023.033452 0) scale(0.996264)"/>
      <use xlink:href="#CMSS17-5b" transform="translate(1086.172337 0) scale(0.996264)"/>
      <use xlink:href="#CMSS17-6d" transform="translate(1113.357776 0) scale(0.996264)"/>
      <use xlink:href="#CMSS17-5d" transform="translate(1187.58703 0) scale(0.996264)"/>
     </g>
    </g>
   </g>
   <g id="line2d_29">
    <path d="M 94.216426 155.711319 
L 143.940133 131.126721 
L 193.66384 106.944929 
L 243.387547 70.934065 
L 293.111254 49.451074 
" clip-path="url(#pbd33c882c7)" style="fill: none; stroke: #0000ff; stroke-width: 1.5; stroke-linecap: square"/>
   </g>
   <g id="line2d_30">
    <path d="M 94.216426 150.488267 
L 143.940133 124.373006 
L 193.66384 106.354147 
L 243.387547 69.591378 
L 293.111254 45.986942 
" clip-path="url(#pbd33c882c7)" style="fill: none; stroke: #ff0000; stroke-width: 1.5; stroke-linecap: square"/>
   </g>
   <g id="line2d_31">
    <path d="M 94.216426 152.381456 
L 143.940133 133.288447 
L 193.66384 104.071579 
L 243.387547 70.128453 
L 293.111254 34.493542 
" clip-path="url(#pbd33c882c7)" style="fill: none; stroke: #008000; stroke-width: 1.5; stroke-linecap: square"/>
   </g>
   <g id="line2d_32">
    <path d="M 94.216426 153.616728 
L 143.940133 130.911891 
L 193.66384 103.521078 
L 243.387547 71.296591 
L 293.111254 36.870097 
" clip-path="url(#pbd33c882c7)" style="fill: none; stroke: #00ffff; stroke-width: 1.5; stroke-linecap: square"/>
   </g>
   <g id="line2d_33">
    <path d="M 94.216426 151.54899 
L 143.940133 133.194459 
L 193.66384 114.034316 
L 243.387547 90.067354 
L 293.111254 59.789764 
" clip-path="url(#pbd33c882c7)" style="fill: none; stroke: #800080; stroke-width: 1.5; stroke-linecap: square"/>
   </g>
   <g id="patch_3">
    <path d="M 44.492719 175.381683 
L 44.492719 14.259249 
" style="fill: none; stroke: #000000; stroke-width: 0.8; stroke-linejoin: miter; stroke-linecap: square"/>
   </g>
   <g id="patch_4">
    <path d="M 342.834961 175.381683 
L 342.834961 14.259249 
" style="fill: none; stroke: #000000; stroke-width: 0.8; stroke-linejoin: miter; stroke-linecap: square"/>
   </g>
   <g id="patch_5">
    <path d="M 44.492719 175.381683 
L 342.834961 175.381683 
" style="fill: none; stroke: #000000; stroke-width: 0.8; stroke-linejoin: miter; stroke-linecap: square"/>
   </g>
   <g id="patch_6">
    <path d="M 44.492719 14.259249 
L 342.834961 14.259249 
" style="fill: none; stroke: #000000; stroke-width: 0.8; stroke-linejoin: miter; stroke-linecap: square"/>
   </g>
   <g id="legend_1">
    <g id="patch_7">
     <path d="M 51.492719 91.945141 
L 174.166806 91.945141 
Q 176.166806 91.945141 176.166806 89.945141 
L 176.166806 21.259249 
Q 176.166806 19.259249 174.166806 19.259249 
L 51.492719 19.259249 
Q 49.492719 19.259249 49.492719 21.259249 
L 49.492719 89.945141 
Q 49.492719 91.945141 51.492719 91.945141 
z
" style="fill: #ffffff; opacity: 0.8; stroke: #cccccc; stroke-linejoin: miter"/>
    </g>
    <g id="line2d_34">
     <path d="M 53.492719 26.759249 
L 63.492719 26.759249 
L 73.492719 26.759249 
" style="fill: none; stroke: #0000ff; stroke-width: 1.5; stroke-linecap: square"/>
    </g>
    <g id="text_17">
     <!-- 5m Error, 5 Hz -->
     <g transform="translate(81.492719 30.259249) scale(0.1 -0.1)">
      <defs>
       <path id="CMSS17-35" d="M 934 3752 
L 2502 3752 
L 2502 4160 
L 467 4160 
L 467 1781 
L 896 1781 
C 1011 2046 1248 2240 1555 2240 
C 1843 2240 2163 1989 2163 1266 
C 2163 493 1709 267 1376 267 
C 966 267 589 512 422 851 
L 218 499 
C 512 49 992 -128 1376 -128 
C 2118 -128 2701 497 2701 1253 
C 2701 2030 2182 2629 1562 2629 
C 1338 2629 1120 2553 934 2399 
L 934 3752 
z
" transform="scale(0.015625)"/>
       <path id="CMSS17-2c" d="M 1088 6 
L 1088 510 
L 576 510 
L 576 0 
L 736 0 
L 570 -800 
L 826 -800 
L 1088 6 
z
" transform="scale(0.015625)"/>
       <path id="CMSS17-48" d="M 3674 4416 
L 3136 4416 
L 3136 2501 
L 1101 2501 
L 1101 4416 
L 563 4416 
L 563 0 
L 1101 0 
L 1101 2112 
L 3136 2112 
L 3136 0 
L 3674 0 
L 3674 4416 
z
" transform="scale(0.015625)"/>
       <path id="CMSS17-7a" d="M 2400 2502 
L 2400 2750 
L 250 2750 
L 250 2368 
L 1069 2368 
C 1146 2368 1222 2368 1299 2368 
L 1747 2368 
L 166 261 
L 166 0 
L 2419 0 
L 2419 395 
L 1549 395 
C 1472 395 1395 395 1318 395 
L 826 395 
L 2400 2502 
z
" transform="scale(0.015625)"/>
      </defs>
      <use xlink:href="#CMSS17-35" transform="scale(0.996264)"/>
      <use xlink:href="#CMSS17-6d" transform="translate(46.843624 0) scale(0.996264)"/>
      <use xlink:href="#CMSS17-45" transform="translate(152.301991 0) scale(0.996264)"/>
      <use xlink:href="#CMSS17-72" transform="translate(208.194004 0) scale(0.996264)"/>
      <use xlink:href="#CMSS17-72" transform="translate(240.103776 0) scale(0.996264)"/>
      <use xlink:href="#CMSS17-6f" transform="translate(272.013549 0) scale(0.996264)"/>
      <use xlink:href="#CMSS17-72" transform="translate(316.254719 0) scale(0.996264)"/>
      <use xlink:href="#CMSS17-2c" transform="translate(348.164491 0) scale(0.996264)"/>
      <use xlink:href="#CMSS17-35" transform="translate(405.417809 0) scale(0.996264)"/>
      <use xlink:href="#CMSS17-48" transform="translate(483.490545 0) scale(0.996264)"/>
      <use xlink:href="#CMSS17-7a" transform="translate(549.552064 0) scale(0.996264)"/>
     </g>
    </g>
    <g id="line2d_35">
     <path d="M 53.492719 40.696428 
L 63.492719 40.696428 
L 73.492719 40.696428 
" style="fill: none; stroke: #ff0000; stroke-width: 1.5; stroke-linecap: square"/>
    </g>
    <g id="text_18">
     <!-- 5m Error, 1 Hz -->
     <g transform="translate(81.492719 44.196428) scale(0.1 -0.1)">
      <defs>
       <path id="CMSS17-31" d="M 1818 4288 
L 1696 4288 
C 1350 3940 947 3890 538 3890 
L 538 3520 
C 723 3520 1024 3520 1325 3667 
L 1325 369 
L 570 369 
L 570 0 
L 2573 0 
L 2573 369 
L 1818 369 
L 1818 4288 
z
" transform="scale(0.015625)"/>
      </defs>
      <use xlink:href="#CMSS17-35" transform="scale(0.996264)"/>
      <use xlink:href="#CMSS17-6d" transform="translate(46.843624 0) scale(0.996264)"/>
      <use xlink:href="#CMSS17-45" transform="translate(152.301991 0) scale(0.996264)"/>
      <use xlink:href="#CMSS17-72" transform="translate(208.194004 0) scale(0.996264)"/>
      <use xlink:href="#CMSS17-72" transform="translate(240.103776 0) scale(0.996264)"/>
      <use xlink:href="#CMSS17-6f" transform="translate(272.013549 0) scale(0.996264)"/>
      <use xlink:href="#CMSS17-72" transform="translate(316.254719 0) scale(0.996264)"/>
      <use xlink:href="#CMSS17-2c" transform="translate(348.164491 0) scale(0.996264)"/>
      <use xlink:href="#CMSS17-31" transform="translate(405.417809 0) scale(0.996264)"/>
      <use xlink:href="#CMSS17-48" transform="translate(483.490545 0) scale(0.996264)"/>
      <use xlink:href="#CMSS17-7a" transform="translate(549.552064 0) scale(0.996264)"/>
     </g>
    </g>
    <g id="line2d_36">
     <path d="M 53.492719 54.633606 
L 63.492719 54.633606 
L 73.492719 54.633606 
" style="fill: none; stroke: #008000; stroke-width: 1.5; stroke-linecap: square"/>
    </g>
    <g id="text_19">
     <!-- 5m Error, 10 Hz -->
     <g transform="translate(81.492719 58.133606) scale(0.1 -0.1)">
      <defs>
       <path id="CMSS17-30" d="M 2758 2044 
C 2758 2405 2752 3077 2490 3596 
C 2227 4096 1805 4229 1504 4229 
C 1069 4229 698 3975 506 3570 
C 301 3146 243 2709 243 2044 
C 243 1589 262 1031 493 543 
C 755 5 1197 -128 1498 -128 
C 1894 -128 2278 81 2496 518 
C 2720 974 2758 1474 2758 2044 
z
M 1498 261 
C 1011 261 864 811 819 995 
C 742 1310 730 1614 730 2114 
C 730 2506 730 2948 851 3297 
C 998 3701 1254 3840 1498 3840 
C 1971 3840 2125 3372 2176 3208 
C 2272 2873 2272 2481 2272 2114 
C 2272 1526 2272 261 1498 261 
z
" transform="scale(0.015625)"/>
      </defs>
      <use xlink:href="#CMSS17-35" transform="scale(0.996264)"/>
      <use xlink:href="#CMSS17-6d" transform="translate(46.843624 0) scale(0.996264)"/>
      <use xlink:href="#CMSS17-45" transform="translate(152.301991 0) scale(0.996264)"/>
      <use xlink:href="#CMSS17-72" transform="translate(208.194004 0) scale(0.996264)"/>
      <use xlink:href="#CMSS17-72" transform="translate(240.103776 0) scale(0.996264)"/>
      <use xlink:href="#CMSS17-6f" transform="translate(272.013549 0) scale(0.996264)"/>
      <use xlink:href="#CMSS17-72" transform="translate(316.254719 0) scale(0.996264)"/>
      <use xlink:href="#CMSS17-2c" transform="translate(348.164491 0) scale(0.996264)"/>
      <use xlink:href="#CMSS17-31" transform="translate(405.417809 0) scale(0.996264)"/>
      <use xlink:href="#CMSS17-30" transform="translate(452.261432 0) scale(0.996264)"/>
      <use xlink:href="#CMSS17-48" transform="translate(530.334169 0) scale(0.996264)"/>
      <use xlink:href="#CMSS17-7a" transform="translate(596.395688 0) scale(0.996264)"/>
     </g>
    </g>
    <g id="line2d_37">
     <path d="M 53.492719 68.570784 
L 63.492719 68.570784 
L 73.492719 68.570784 
" style="fill: none; stroke: #00ffff; stroke-width: 1.5; stroke-linecap: square"/>
    </g>
    <g id="text_20">
     <!-- 7m Error, 5 Hz -->
     <g transform="translate(81.492719 72.070784) scale(0.1 -0.1)">
      <defs>
       <path id="CMSS17-37" d="M 1389 3776 
C 1466 3776 1542 3776 1619 3776 
L 2355 3776 
C 1440 2711 915 1365 915 -32 
L 1427 -32 
C 1427 1323 1875 2696 2752 3795 
L 2752 4209 
L 250 4209 
L 250 3776 
L 1389 3776 
z
" transform="scale(0.015625)"/>
      </defs>
      <use xlink:href="#CMSS17-37" transform="scale(0.996264)"/>
      <use xlink:href="#CMSS17-6d" transform="translate(46.843624 0) scale(0.996264)"/>
      <use xlink:href="#CMSS17-45" transform="translate(152.301991 0) scale(0.996264)"/>
      <use xlink:href="#CMSS17-72" transform="translate(208.194004 0) scale(0.996264)"/>
      <use xlink:href="#CMSS17-72" transform="translate(240.103776 0) scale(0.996264)"/>
      <use xlink:href="#CMSS17-6f" transform="translate(272.013549 0) scale(0.996264)"/>
      <use xlink:href="#CMSS17-72" transform="translate(316.254719 0) scale(0.996264)"/>
      <use xlink:href="#CMSS17-2c" transform="translate(348.164491 0) scale(0.996264)"/>
      <use xlink:href="#CMSS17-35" transform="translate(405.417809 0) scale(0.996264)"/>
      <use xlink:href="#CMSS17-48" transform="translate(483.490545 0) scale(0.996264)"/>
      <use xlink:href="#CMSS17-7a" transform="translate(549.552064 0) scale(0.996264)"/>
     </g>
    </g>
    <g id="line2d_38">
     <path d="M 53.492719 82.507963 
L 63.492719 82.507963 
L 73.492719 82.507963 
" style="fill: none; stroke: #800080; stroke-width: 1.5; stroke-linecap: square"/>
    </g>
    <g id="text_21">
     <!-- Dual-10m Error, 5 Hz -->
     <g transform="translate(81.492719 86.007963) scale(0.1 -0.1)">
      <defs>
       <path id="CMSS17-44" d="M 570 4416 
L 570 0 
L 2144 0 
C 3194 0 4000 980 4000 2170 
C 4000 3398 3194 4416 2144 4416 
L 570 4416 
z
M 1094 357 
L 1094 4059 
L 2003 4059 
C 2861 4059 3475 3277 3475 2170 
C 3475 1107 2867 357 2003 357 
L 1094 357 
z
" transform="scale(0.015625)"/>
       <path id="CMSS17-75" d="M 2618 2739 
L 2131 2739 
L 2131 972 
C 2131 498 1786 306 1421 306 
C 998 306 960 447 960 709 
L 960 2739 
L 474 2739 
L 474 678 
C 474 179 646 -64 1088 -64 
C 1306 -64 1798 -13 2144 306 
L 2144 0 
L 2618 0 
L 2618 2739 
z
" transform="scale(0.015625)"/>
       <path id="CMSS17-2d" d="M 1664 1216 
L 1664 1585 
L 64 1585 
L 64 1216 
L 1664 1216 
z
" transform="scale(0.015625)"/>
      </defs>
      <use xlink:href="#CMSS17-44" transform="scale(0.996264)"/>
      <use xlink:href="#CMSS17-75" transform="translate(67.542842 0) scale(0.996264)"/>
      <use xlink:href="#CMSS17-61" transform="translate(115.747785 0) scale(0.996264)"/>
      <use xlink:href="#CMSS17-6c" transform="translate(160.669705 0) scale(0.996264)"/>
      <use xlink:href="#CMSS17-2d" transform="translate(182.850428 0) scale(0.996264)"/>
      <use xlink:href="#CMSS17-31" transform="translate(214.079541 0) scale(0.996264)"/>
      <use xlink:href="#CMSS17-30" transform="translate(260.923165 0) scale(0.996264)"/>
      <use xlink:href="#CMSS17-6d" transform="translate(307.766788 0) scale(0.996264)"/>
      <use xlink:href="#CMSS17-45" transform="translate(413.225155 0) scale(0.996264)"/>
      <use xlink:href="#CMSS17-72" transform="translate(469.117169 0) scale(0.996264)"/>
      <use xlink:href="#CMSS17-72" transform="translate(501.026941 0) scale(0.996264)"/>
      <use xlink:href="#CMSS17-6f" transform="translate(532.936714 0) scale(0.996264)"/>
      <use xlink:href="#CMSS17-72" transform="translate(577.177883 0) scale(0.996264)"/>
      <use xlink:href="#CMSS17-2c" transform="translate(609.087656 0) scale(0.996264)"/>
      <use xlink:href="#CMSS17-35" transform="translate(666.340974 0) scale(0.996264)"/>
      <use xlink:href="#CMSS17-48" transform="translate(744.41371 0) scale(0.996264)"/>
      <use xlink:href="#CMSS17-7a" transform="translate(810.475229 0) scale(0.996264)"/>
     </g>
    </g>
   </g>
  </g>
 </g>
 <defs>
  <clipPath id="pbd33c882c7">
   <rect x="44.492719" y="14.259249" width="298.342241" height="161.122434"/>
  </clipPath>
 </defs>
</svg>
